<svg width="50" height="50" viewBox="0 0 50 50" fill="none" xmlns="http://www.w3.org/2000/svg">
<path d="M31.2119 2.01697C32.4956 5.25076 32.4955 5.25085 30.6787 8.21814C33.9125 6.93445 33.9127 6.93435 36.8799 8.75105C35.5962 5.51726 35.5961 5.51736 37.4128 2.55007C34.179 3.83386 34.1792 3.83376 31.2119 2.01697ZM11.0375 3.71296C9.88438 5.76765 9.88438 5.76765 7.54883 6.07791C9.60352 7.23113 9.60352 7.23103 9.91377 9.56667C11.0669 7.51199 11.0669 7.51199 13.4024 7.20173C11.3478 6.04861 11.3478 6.04861 11.0375 3.71296ZM18.5131 9.19968C18.4201 14.1399 18.4203 14.1399 14.4124 17.0298C19.3525 17.1225 19.3526 17.1225 22.2425 21.1303C22.3353 16.1901 22.3353 16.1901 26.3431 13.3003C21.4028 13.2075 21.4028 13.2075 18.513 9.19968H18.5131ZM37.1827 14.6572C37.1782 17.0134 37.178 17.0132 35.2904 18.4232C37.6466 18.4278 37.6466 18.4277 39.0566 20.3153C39.0612 17.9593 39.0611 17.9594 40.9487 16.5493C38.5927 16.5447 38.5928 16.5448 37.1827 14.6572ZM19.2056 22.8486C19.0893 22.851 18.9751 22.8554 18.8646 22.8617C17.049 22.9656 14.7759 23.6836 11.3016 25.0644L7.42305 42.342C15.0878 40.3172 20.4084 40.2024 24.1213 41.8913V24.1904C22.3561 23.3298 21.0168 22.8819 19.5601 22.8489C19.4419 22.8465 19.3238 22.8464 19.2057 22.8487L19.2056 22.8486ZM31.1866 23.9638C30.9019 23.9613 30.6192 23.9649 30.3552 23.9734C29.1042 24.0141 27.6562 24.1897 25.8786 24.415V41.7134C30.133 40.9492 36.3132 41.3032 42.6017 42.4522L38.7169 25.1478C35.2106 24.3304 33.1906 23.9847 31.1866 23.9639V23.9638ZM31.4102 25.6191C33.2548 25.639 35.009 25.8894 36.655 26.1093L37.0883 27.7229C34.766 27.3567 30.6463 27.2438 28.0583 27.6272L27.9962 25.8885C29.1641 25.6781 30.3033 25.6072 31.4102 25.6191ZM6.94893 26.074L5.91211 30.5666H8.26504L9.27344 26.074H6.94893ZM40.7264 26.074L44.6074 43.3622L44.8261 44.3361L47.0322 44.3213L43.0425 26.074H40.7264ZM33.0255 31.7205C34.685 31.723 36.3136 31.7977 37.8249 31.9376L38.169 33.6147C34.9811 33.3139 31.0812 33.3326 28.1109 33.6147L28.0417 31.9376C29.6758 31.7879 31.3659 31.718 33.0255 31.7205ZM5.50664 32.324L4.83047 35.2541H7.2127L7.87041 32.324H5.50664ZM32.3053 34.9845C32.76 34.9866 33.2317 34.9928 33.7424 35.0044L33.9919 36.7132C32.0417 36.6672 29.3908 36.7678 28.1591 36.8157L28.0907 35.0594C29.7316 35.0112 30.9412 34.9785 32.3053 34.9845ZM36.3557 35.0282C37.1631 35.0323 37.9862 35.0608 38.7112 35.0349L38.9632 36.7674C38.1182 36.7369 36.5345 36.6863 35.8319 36.7183L35.5578 35.0353C35.8237 35.0287 36.0897 35.0264 36.3557 35.0282ZM4.425 37.0115L2.66865 44.6217L5.11348 44.6051L6.81807 37.0115H4.425ZM34.0309 38.1685C35.9457 38.1676 37.8062 38.2441 39.5435 38.4197L39.836 40.4497C36.4859 40.0352 31.4615 39.698 28.2052 40.1329L28.1915 38.3827C30.1466 38.248 32.1159 38.1695 34.0309 38.1685ZM17.7607 42.4703C14.8201 42.4791 11.1283 43.0806 6.49043 44.4L5.78535 44.6005L24.1212 44.4764V43.8566C22.5356 42.9576 20.4669 42.4623 17.7608 42.4703H17.7607ZM30.8867 43.0732C28.9697 43.0798 27.2625 43.2137 25.8786 43.4816V44.4644L43.2218 44.3469C38.8935 43.5038 34.517 43.0608 30.8868 43.0732H30.8867ZM2.53906 46.3867V48.1445H47.4609V46.3867H2.53906Z" fill="#10161D"/>
</svg>
